<svg version="1.1" id="Layer_1" xmlns="http://www.w3.org/2000/svg" xmlns:xlink="http://www.w3.org/1999/xlink" x="0px" y="0px"
	 width="100%" viewBox="0 0 496 496" enable-background="new 0 0 496 496" xml:space="preserve">
<path fill="#000000" opacity="1.000000" stroke="none" 
	d="
M210.930801,312.125214 
	C221.797928,314.667908 232.243942,315.374115 242.888336,312.731354 
	C261.701172,308.060455 268.768921,288.474854 261.732513,271.936951 
	C257.285370,261.484711 249.361023,253.785873 240.554657,247.110596 
	C229.941254,239.065598 218.887146,231.603806 208.070374,223.824814 
	C197.103897,215.938171 186.307739,207.856003 177.777298,197.179581 
	C163.402054,179.188065 162.791016,156.672699 176.856796,140.890320 
	C187.637421,128.793991 201.883896,123.778046 217.750397,122.677277 
	C231.095520,121.751427 243.483978,124.825134 255.254105,131.027283 
	C259.470490,133.249069 263.529907,135.922089 268.717316,135.844467 
	C273.259491,135.776535 276.059296,134.168030 276.665588,129.473572 
	C276.874847,127.853203 276.783630,125.837769 279.221924,125.985786 
	C281.719666,126.137428 281.277191,128.263901 281.281219,129.798874 
	C281.329315,148.127136 281.327759,166.455612 281.290955,184.783920 
	C281.287842,186.327286 281.759705,188.460129 279.148743,188.442062 
	C276.774170,188.425629 276.817780,186.518417 276.714386,184.838669 
	C275.988373,173.040115 273.245758,161.905029 266.771820,151.777374 
	C255.428513,134.032135 233.379944,125.526268 213.244537,131.388016 
	C203.990295,134.082077 198.019394,141.800415 197.158676,151.470169 
	C195.627762,168.668915 203.913956,181.209381 216.136642,191.783722 
	C228.267517,202.278671 242.236938,210.225723 255.326370,219.395401 
	C266.549805,227.257828 277.471924,235.517334 284.597046,247.608612 
	C293.483276,262.688416 294.262512,278.520264 287.838226,294.584473 
	C281.653595,310.049408 268.741699,317.085144 253.340393,320.297272 
	C233.157745,324.506592 213.657013,322.439484 195.025787,313.262756 
	C190.501831,311.034515 185.706711,309.780548 180.545670,310.174164 
	C176.055588,310.516602 172.319946,311.698639 171.232300,316.754700 
	C170.908859,318.258240 170.060379,319.172089 168.432693,318.900116 
	C166.954605,318.653168 166.795959,317.410675 166.733093,316.223358 
	C166.662674,314.893402 166.663528,313.558777 166.663177,312.226166 
	C166.657272,290.065430 166.655563,267.904724 166.655121,245.743988 
	C166.655090,244.577728 166.626190,243.408524 166.697205,242.245972 
	C166.787033,240.775253 166.646164,239.010773 168.853729,239.041351 
	C170.902054,239.069748 171.210754,240.688385 171.186035,242.225006 
	C171.065048,249.746674 171.900009,257.170715 173.365189,264.528992 
	C176.365189,279.595276 182.250687,293.091675 194.445709,303.157898 
	C199.261871,307.133331 204.610504,310.090302 210.930801,312.125214 
z"/>
<path fill="#000000" opacity="1.000000" stroke="none" 
	d="
M312.431458,219.664810 
	C322.807739,244.419113 333.024109,268.824005 343.305878,293.201355 
	C345.245544,297.800171 347.377594,302.325745 350.273804,306.433319 
	C354.525696,312.463623 360.105652,316.236176 367.647949,316.779388 
	C368.764984,316.859833 370.098175,317.072235 370.897339,317.741730 
	C372.305969,318.921814 372.375793,320.459900 370.311066,321.091248 
	C369.077332,321.468506 367.675995,321.362396 366.349945,321.363220 
	C345.699860,321.376282 325.049805,321.372314 304.399719,321.367188 
	C303.401215,321.366943 302.400635,321.351135 301.404785,321.285370 
	C300.186951,321.204926 299.033295,320.953522 298.974213,319.395844 
	C298.916229,317.866699 300.037933,317.373932 301.228241,317.242126 
	C303.209503,317.022827 305.212708,317.008484 307.204865,316.879761 
	C315.199341,316.363312 318.867035,311.566498 317.127258,303.779388 
	C314.970642,294.126617 310.323303,285.393677 306.760956,276.263763 
	C305.170258,272.187073 304.166321,268.076904 303.631256,263.744324 
	C302.290558,252.889053 297.585114,243.435928 291.034760,234.806793 
	C287.015320,229.511703 277.749023,208.556580 276.512115,201.959824 
	C279.547974,200.188370 282.940735,201.095169 286.151398,201.028137 
	C293.705200,200.870438 293.699585,200.970047 293.723724,193.244446 
	C293.737244,188.916794 293.773254,184.589127 293.829315,180.261871 
	C293.833160,179.964661 294.089966,179.670746 294.920532,177.907501 
	C300.986206,192.360886 306.640228,205.833374 312.431458,219.664810 
z"/>
<path fill="#000000" opacity="1.000000" stroke="none" 
	d="
M217.261734,272.324707 
	C220.159256,265.463104 222.886963,258.944092 225.835159,251.898102 
	C229.305923,254.554016 232.034729,256.642151 234.763519,258.730316 
	C234.924652,259.228760 235.085785,259.727203 235.246918,260.225677 
	C225.212265,257.991638 224.804276,265.639496 222.417206,271.052429 
	C218.936523,278.945282 215.766785,286.974762 212.386414,294.912750 
	C211.800140,296.289459 211.513031,298.634155 209.148041,297.647736 
	C206.982056,296.744232 207.923187,294.904449 208.552490,293.371063 
	C211.386841,286.464813 214.243378,279.567657 217.261734,272.324707 
z"/>
<path fill="#000000" opacity="1.000000" stroke="none" 
	d="
M319.234924,357.994873 
	C317.176025,355.685883 317.528137,352.407654 315.061401,350.450806 
	C313.643005,352.762360 314.388641,355.832886 311.375519,358.326416 
	C310.184814,351.953522 312.918427,347.012085 314.110413,341.229187 
	C317.713623,344.184021 316.870544,348.656921 319.857452,351.359802 
	C321.385223,348.062714 322.867615,344.863556 324.986450,340.290863 
	C326.886475,346.937042 328.419403,352.101044 328.771606,358.215820 
	C324.513397,356.553192 326.454926,352.392151 324.128906,350.516052 
	C321.572906,352.451050 322.870911,356.729828 319.234924,357.994873 
z"/>
<path fill="#000000" opacity="1.000000" stroke="none" 
	d="
M251.115616,191.211502 
	C254.158524,184.042374 257.048065,177.221298 260.115662,169.979858 
	C263.245758,172.280075 262.522095,174.748917 261.662842,176.919708 
	C258.858795,184.003860 255.885696,191.022018 252.898026,198.031662 
	C252.369400,199.271927 252.054031,201.311722 249.903854,200.403061 
	C247.736221,199.487061 248.486160,197.749863 249.108582,196.170898 
	C249.716110,194.629700 250.343536,193.096344 251.115616,191.211502 
z"/>
<path fill="#000000" opacity="1.000000" stroke="none" 
	d="
M273.190674,354.895630 
	C271.671478,355.933258 271.658630,358.336578 268.254364,357.756653 
	C270.554291,352.126465 272.754395,346.740540 275.400970,340.261719 
	C279.174377,346.400665 280.951904,351.907043 283.311066,358.374207 
	C279.170959,357.207672 277.430725,352.547150 273.190674,354.895630 
z"/>
<path fill="#000000" opacity="1.000000" stroke="none" 
	d="
M165.112686,354.802246 
	C165.377426,356.058044 166.116516,357.017303 164.628387,358.119354 
	C160.879395,353.335083 156.721222,352.241547 152.160278,358.507782 
	C152.819534,351.782196 155.948868,346.852234 158.297363,340.876373 
	C162.204391,345.114471 162.866928,350.160675 165.112686,354.802246 
z"/>
<path fill="#000000" opacity="1.000000" stroke="none" 
	d="
M141.793274,345.522644 
	C139.548569,344.664825 137.588150,343.126984 135.762024,345.634460 
	C135.977310,347.943481 137.976318,347.953979 139.423370,348.483582 
	C142.260437,349.521881 144.701416,350.740814 144.268814,354.407715 
	C143.938141,357.210693 142.078430,358.499451 139.561417,358.747498 
	C136.299454,359.068909 133.273849,358.600830 132.062286,354.826569 
	C134.065964,352.886414 135.134155,355.174225 136.557755,355.495331 
	C138.232773,355.873108 140.155136,356.312164 140.863449,354.309753 
	C141.569946,352.312469 139.601837,351.962646 138.239182,351.437042 
	C137.619781,351.198120 136.955948,351.073029 136.339767,350.827362 
	C134.087906,349.929657 132.002380,348.800537 132.119797,345.932983 
	C132.194000,344.120514 133.241409,342.629639 134.911911,342.119263 
	C137.476868,341.335602 140.216324,340.971924 142.478943,342.958527 
	C143.390533,343.758911 143.913177,344.955322 141.793274,345.522644 
z"/>
<path fill="#000000" opacity="1.000000" stroke="none" 
	d="
M368.269531,344.818604 
	C371.239685,350.718201 370.184448,355.074707 365.539001,357.409332 
	C359.922089,360.232239 356.722870,358.346344 356.665588,352.176575 
	C356.657867,351.344574 356.535004,350.487823 356.687836,349.684875 
	C357.182220,347.087341 355.074707,343.423767 358.440765,342.084137 
	C361.779724,340.755188 365.354156,341.602234 368.269531,344.818604 
M359.386383,352.814758 
	C359.650421,355.673248 361.352234,356.096741 363.589050,355.085815 
	C366.315399,353.853668 367.734192,351.680206 366.935333,348.651886 
	C366.283264,346.179901 364.480652,344.543365 361.890259,344.559052 
	C358.844299,344.577484 359.500641,347.139191 359.370392,349.027008 
	C359.301849,350.020294 359.359009,351.022247 359.386383,352.814758 
z"/>
<path fill="#000000" opacity="1.000000" stroke="none" 
	d="
M248.014282,350.808655 
	C247.372467,353.309143 246.487106,355.281769 244.718323,356.647461 
	C242.158859,358.623596 239.101944,358.992401 236.240677,357.931671 
	C233.616943,356.959015 234.936676,354.197174 234.681656,352.203217 
	C234.515015,350.900330 234.461075,349.528503 234.680511,348.242859 
	C235.058960,346.025360 233.320084,342.758179 236.743423,341.915070 
	C240.695618,340.941650 244.416855,341.927948 246.649612,345.720703 
	C247.454880,347.088531 247.609467,348.839417 248.014282,350.808655 
M240.216431,344.529144 
	C237.545837,345.880798 236.072678,352.889343 238.079147,354.835327 
	C239.212067,355.934113 240.474091,355.597076 241.712555,354.980072 
	C243.637787,354.020813 244.701416,352.504120 244.784912,350.319672 
	C244.893417,347.480865 243.528152,345.671906 240.216431,344.529144 
z"/>
<path fill="#000000" opacity="1.000000" stroke="none" 
	d="
M342.761963,341.631104 
	C344.490753,341.929840 346.281586,341.058472 346.832855,343.077087 
	C346.458618,344.471924 345.373779,344.297058 344.413605,344.421570 
	C342.918152,344.615417 340.597351,343.682251 340.517731,346.186066 
	C340.447784,348.385529 342.691956,348.265808 344.247589,348.611267 
	C345.192719,348.821167 346.203766,348.856293 346.590454,349.899200 
	C346.271423,351.401642 345.107117,351.160248 344.202545,351.307587 
	C342.653625,351.559845 340.505829,350.993835 340.341858,353.380707 
	C340.171509,355.861298 342.297119,355.517365 343.883087,355.733215 
	C344.970886,355.881287 346.290710,355.686401 346.650299,357.559784 
	C343.718597,358.841705 339.525024,359.762970 337.999664,357.685608 
	C335.117279,353.760101 336.674652,348.463196 337.033020,343.791473 
	C337.265747,340.757843 340.354126,341.938568 342.761963,341.631104 
z"/>
<path fill="#000000" opacity="1.000000" stroke="none" 
	d="
M298.297729,348.183716 
	C300.735870,346.615326 298.429443,343.263580 301.975189,341.744568 
	C302.600220,347.277679 302.651855,352.405029 301.889709,357.805847 
	C298.071167,356.796478 301.612854,351.176849 296.806793,351.375397 
	C292.310150,351.561188 295.281281,356.792694 291.472321,358.297455 
	C290.307526,352.600067 290.496674,347.406006 291.346100,341.798950 
	C295.265289,343.243713 292.258606,349.845703 298.297729,348.183716 
z"/>
<path fill="#000000" opacity="1.000000" stroke="none" 
	d="
M198.572266,354.565674 
	C200.351196,356.485565 203.169800,354.690765 204.789169,357.319000 
	C201.661972,358.954620 198.589478,358.890717 195.594345,357.532166 
	C194.457932,357.016724 194.040421,343.919006 195.254242,342.964661 
	C198.273621,340.590820 201.582687,341.391113 204.921082,342.443695 
	C204.281494,344.967957 202.531906,344.250244 201.168442,344.339417 
	C199.767807,344.431000 198.373016,344.541138 198.308105,346.352448 
	C198.244003,348.141083 199.587723,348.448120 200.998810,348.581940 
	C202.263077,348.701843 203.649323,348.496552 204.574966,349.762238 
	C203.732864,353.080811 197.841736,349.221985 198.572266,354.565674 
z"/>
<path fill="#000000" opacity="1.000000" stroke="none" 
	d="
M217.882385,345.499634 
	C217.642639,350.917023 222.966476,346.934143 224.326981,349.874939 
	C223.923340,351.923889 222.096024,351.199951 220.793686,351.353943 
	C219.176758,351.545197 217.671402,351.873962 217.732712,353.829712 
	C217.790359,355.669403 219.375214,355.550720 220.705292,355.680939 
	C222.079285,355.815430 223.763626,355.263733 224.648392,357.563263 
	C221.431168,358.644928 218.328217,359.101807 215.368668,357.324280 
	C214.224106,356.636810 214.151535,343.499481 215.301636,342.745209 
	C218.250778,340.811096 221.389877,341.419678 224.977524,342.514954 
	C223.032303,345.399017 219.798187,343.346497 217.882385,345.499634 
z"/>
<path fill="#000000" opacity="1.000000" stroke="none" 
	d="
M176.347275,347.753052 
	C175.203415,345.781494 173.282455,344.620575 173.488510,342.170258 
	C177.371567,340.813904 177.116302,346.099335 179.964386,346.197144 
	C182.631775,345.833252 182.401352,341.148224 186.713089,342.266968 
	C184.247421,347.377411 180.017258,351.665588 180.587601,357.875275 
	C177.510468,354.994202 179.535660,350.571594 176.347275,347.753052 
z"/>
</svg>